Coordinates
version=1
nRows=19
nColumns=34
inDegrees=no

Units are S.I. units (second, meters, Newtons, ...)
If the header above contains a line with 'inDegrees', this indicates whether rotational values are in degrees (yes) or radians (no).

endheader
time	pelvis_tilt	pelvis_list	pelvis_rotation	pelvis_tx	pelvis_ty	pelvis_tz	hip_flexion_r	hip_adduction_r	hip_rotation_r	knee_angle_r	ankle_angle_r	subtalar_angle_r	mtp_angle_r	hip_flexion_l	hip_adduction_l	hip_rotation_l	knee_angle_l	ankle_angle_l	subtalar_angle_l	mtp_angle_l	lumbar_extension	lumbar_bending	lumbar_rotation	arm_flex_r	arm_add_r	arm_rot_r	elbow_flex_r	pro_sup_r	arm_flex_l	arm_add_l	arm_rot_l	elbow_flex_l	pro_sup_l
1.77	-0.498675	-0.0542799	-0.0192076	-0.35915	0.857278	-0.556149	1.28375	0.0515185	0.0133033	1.18415	0.400221	-0.291194	-0.115704	1.30734	-0.127272	0.0370476	1.22377	0.456152	-0.117901	-0.115704	-0.240971	0.0481246	-0.00699968	0.317781	-0.351879	-0.00620665	1.24727	2.08767	-0.0407317	-0.168329	-0.028044	0.852766	1.51181
1.78	-0.491681	-0.0535984	-0.0211207	-0.357083	0.851013	-0.556356	1.2896	0.051389	0.0128169	1.21212	0.416799	-0.285546	-0.115704	1.31244	-0.127198	0.0403331	1.25124	0.469052	-0.120375	-0.115704	-0.249439	0.0468417	0.00358774	0.330779	-0.352766	0.00706349	1.25659	2.08926	-0.0157849	-0.169159	-0.0201617	0.855041	1.49993
1.79	-0.483288	-0.0532312	-0.0223031	-0.35448	0.844935	-0.556625	1.29315	0.0510512	0.012289	1.23988	0.433618	-0.280123	-0.115704	1.31532	-0.126746	0.0437295	1.27833	0.482163	-0.122551	-0.115704	-0.256368	0.0461154	0.0129999	0.345797	-0.355015	0.0199991	1.27102	2.09052	0.0105416	-0.171525	-0.01618	0.865125	1.49403
1.8	-0.473883	-0.05322	-0.0226969	-0.351356	0.839144	-0.55696	1.29449	0.0506186	0.0118519	1.26689	0.450317	-0.275316	-0.115704	1.31612	-0.125783	0.047342	1.30456	0.49528	-0.124581	-0.115704	-0.261179	0.0460784	0.0205117	0.363911	-0.358651	0.0332715	1.29074	2.09159	0.0376377	-0.175872	-0.0169278	0.884572	1.49487
1.81	-0.463906	-0.0535889	-0.022266	-0.34775	0.833744	-0.557362	1.29378	0.0501938	0.011587	1.2926	0.466484	-0.271459	-0.115704	1.31505	-0.124203	0.0512478	1.32945	0.508154	-0.126567	-0.115704	-0.263332	0.0468392	0.025338	0.386424	-0.36368	0.0479742	1.31563	2.09256	0.0649372	-0.182793	-0.023029	0.914542	1.50279
1.82	-0.453819	-0.0543347	-0.021018	-0.343714	0.82885	-0.557823	1.29124	0.0498616	0.011525	1.31642	0.481693	-0.26879	-0.115704	1.31235	-0.12196	0.0554548	1.35248	0.520515	-0.128542	-0.115704	-0.262353	0.0484525	0.0267938	0.414753	-0.3701	0.0654193	1.34527	2.09337	0.0920651	-0.192999	-0.0347167	0.955568	1.51763
1.83	-0.444067	-0.0554188	-0.0190202	-0.339313	0.824583	-0.558332	1.28711	0.0496816	0.0116543	1.3378	0.495538	-0.267419	-0.115704	1.30825	-0.119098	0.0598689	1.37312	0.532089	-0.130471	-0.115704	-0.257864	0.0508921	0.0244938	0.450237	-0.377935	0.0868219	1.37892	2.09379	0.119004	-0.20725	-0.0516434	1.0074	1.53856
1.84	-0.43504	-0.0567722	-0.0164006	-0.33462	0.821079	-0.558874	1.28156	0.0496853	0.0119308	1.35619	0.507664	-0.267323	-0.115704	1.30292	-0.115759	0.064294	1.39083	0.542621	-0.132257	-0.115704	-0.249616	0.0540507	0.018504	0.493955	-0.387261	0.113016	1.41569	2.0934	0.146218	-0.226267	-0.0727724	1.06895	1.564
1.85	-0.427058	-0.0583071	-0.0133314	-0.329705	0.818482	-0.559432	1.27475	0.0498756	0.0122922	1.37106	0.517796	-0.268383	-0.115704	1.29645	-0.112167	0.0684643	1.4051	0.551881	-0.133774	-0.115704	-0.237513	0.0577613	0.00934917	0.54663	-0.398199	0.144348	1.45464	2.09163	0.174653	-0.250648	-0.0964477	1.13844	1.59162
1.86	-0.420348	-0.0599215	-0.00999796	-0.324631	0.816947	-0.559984	1.26674	0.050224	0.0126866	1.38192	0.525744	-0.270451	-0.115704	1.28886	-0.108586	0.0720841	1.41542	0.559664	-0.134903	-0.115704	-0.221645	0.0618115	-0.00210338	0.608613	-0.410873	0.180724	1.4948	2.08782	0.205645	-0.280789	-0.120598	1.21362	1.61856
1.87	-0.415028	-0.0614944	-0.00656188	-0.319451	0.816636	-0.560508	1.25748	0.0506625	0.0131068	1.38832	0.531412	-0.273411	-0.115704	1.28006	-0.10527	0.0748685	1.42131	0.565787	-0.135581	-0.115704	-0.202333	0.0659461	-0.0148674	0.67999	-0.425339	0.221782	1.53526	2.08128	0.240727	-0.31684	-0.143045	1.29211	1.64184
1.88	-0.411065	-0.0628841	-0.00312745	-0.314202	0.817715	-0.560979	1.24676	0.0510838	0.0136184	1.38985	0.534763	-0.277256	-0.115704	1.26979	-0.102407	0.0765834	1.42234	0.570077	-0.135822	-0.115704	-0.180159	0.0698684	-0.0280311	0.760662	-0.441533	0.267047	1.57511	2.07145	0.281467	-0.358651	-0.161745	1.37166	1.65908
1.89	-0.408254	-0.0639532	0.000271691	-0.308904	0.820357	-0.561375	1.23419	0.0513618	0.0143544	1.38609	0.535762	-0.282126	-0.115704	1.25764	-0.100107	0.0770994	1.41805	0.57235	-0.135743	-0.115704	-0.155951	0.0732668	-0.0407509	0.850295	-0.459345	0.315906	1.61351	2.05794	0.329456	-0.405691	-0.174753	1.45016	1.66882
1.9	-0.406205	-0.0646061	0.00366482	-0.303561	0.824735	-0.561677	1.21912	0.0513846	0.0154827	1.37658	0.534301	-0.288301	-0.115704	1.24296	-0.0984106	0.0764346	1.40799	0.57238	-0.135562	-0.115704	-0.130726	0.0758715	-0.0522422	0.948288	-0.47869	0.367628	1.6497	2.04067	0.386252	-0.456994	-0.180216	1.52568	1.67072
1.91	-0.404357	-0.0648245	0.00712053	-0.298158	0.831012	-0.561879	1.2007	0.0510836	0.0171486	1.36077	0.530116	-0.296116	-0.115704	1.22496	-0.0973154	0.0747691	1.3917	0.56986	-0.135571	-0.115704	-0.105609	0.0775226	-0.0617942	1.05377	-0.499527	0.421434	1.68301	2.02	0.453246	-0.511173	-0.176443	1.59646	1.66545
1.92	-0.402043	-0.0646933	0.0107143	-0.292665	0.839327	-0.561986	1.17791	0.0504511	0.0193947	1.33799	0.522722	-0.305818	-0.115704	1.20269	-0.0968174	0.0724207	1.36862	0.564345	-0.136078	-0.115704	-0.0816911	0.078233	-0.0688243	1.1656	-0.521808	0.476604	1.71279	1.99675	0.531418	-0.56651	-0.162088	1.66096	1.65463
1.93	-0.398616	-0.0644041	0.0144947	-0.287034	0.849777	-0.562017	1.14969	0.0495447	0.0220759	1.30743	0.511356	-0.317374	-0.115704	1.17522	-0.0969436	0.0697729	1.33815	0.555205	-0.137306	-0.115704	-0.0598167	0.0782201	-0.0729782	1.28238	-0.545331	0.532567	1.73831	1.97191	0.62099	-0.621149	-0.136392	1.71792	1.6405
1.94	-0.393629	-0.0642136	0.0184607	-0.281188	0.862388	-0.561998	1.11518	0.0484673	0.0247996	1.26812	0.494949	-0.330289	-0.115704	1.14177	-0.0977579	0.0671388	1.29954	0.541567	-0.139266	-0.115704	-0.040324	0.0778628	-0.0742483	1.40235	-0.569556	0.588912	1.75878	1.94622	0.721036	-0.673374	-0.0994026	1.76652	1.6252
1.95	-0.386938	-0.0643763	0.0225592	-0.275022	0.87712	-0.561959	1.07379	0.0473314	0.0268923	1.21901	0.47213	-0.343461	-0.115704	1.10182	-0.0993339	0.0645933	1.25188	0.522256	-0.141641	-0.115704	-0.0229286	0.0776151	-0.073034	1.52332	-0.593502	0.645271	1.77339	1.92012	0.829244	-0.721889	-0.0520947	1.8065	1.61025
